<svg width="16" height="16" viewBox="0 0 16 16" fill="none" xmlns="http://www.w3.org/2000/svg">
<g clip-path="url(#clip0_324_5175)">
<path fill-rule="evenodd" clip-rule="evenodd" d="M9.75004 0.75C9.75004 0.551088 9.67102 0.360322 9.53037 0.21967C9.38972 0.0790176 9.19895 0 9.00004 0C8.80113 0 8.61036 0.0790176 8.46971 0.21967C8.32906 0.360322 8.25004 0.551088 8.25004 0.75V2.25C8.25004 2.44891 8.32906 2.63968 8.46971 2.78033C8.61036 2.92098 8.80113 3 9.00004 3C9.19895 3 9.38972 2.92098 9.53037 2.78033C9.67102 2.63968 9.75004 2.44891 9.75004 2.25V0.75ZM13.78 3.28C13.8537 3.21134 13.9128 3.12854 13.9538 3.03654C13.9948 2.94454 14.0169 2.84523 14.0186 2.74452C14.0204 2.64382 14.0019 2.54379 13.9642 2.4504C13.9264 2.35701 13.8703 2.27218 13.7991 2.20096C13.7279 2.12974 13.643 2.0736 13.5496 2.03588C13.4562 1.99816 13.3562 1.97963 13.2555 1.98141C13.1548 1.98319 13.0555 2.00523 12.9635 2.04622C12.8715 2.08721 12.7887 2.14631 12.72 2.22L11.22 3.72C11.1464 3.78866 11.0873 3.87146 11.0463 3.96346C11.0053 4.05546 10.9832 4.15477 10.9814 4.25548C10.9797 4.35618 10.9982 4.45621 11.0359 4.5496C11.0736 4.64299 11.1298 4.72782 11.201 4.79904C11.2722 4.87026 11.3571 4.9264 11.4504 4.96412C11.5438 5.00184 11.6439 5.02037 11.7446 5.01859C11.8453 5.01681 11.9446 4.99477 12.0366 4.95378C12.1286 4.91279 12.2114 4.85369 12.28 4.78L13.78 3.28ZM8.29304 4.646C8.48057 4.45853 8.73488 4.35321 9.00004 4.35321C9.2652 4.35321 9.51951 4.45853 9.70704 4.646L11.354 6.293C11.5415 6.48053 11.6468 6.73484 11.6468 7C11.6468 7.26516 11.5415 7.51947 11.354 7.707L3.36404 15.697C3.27117 15.79 3.16088 15.8637 3.03948 15.9141C2.91808 15.9644 2.78796 15.9903 2.65654 15.9903C2.52513 15.9903 2.395 15.9644 2.2736 15.9141C2.1522 15.8637 2.04191 15.79 1.94904 15.697L0.30304 14.051C0.115569 13.8635 0.0102539 13.6092 0.0102539 13.344C0.0102539 13.0788 0.115569 12.8245 0.30304 12.637L8.29304 4.646ZM9.00004 6.061L7.06004 8L8.00004 8.94L9.94004 7L9.00004 6.061ZM1.71704 13.344L6.00004 9.06L6.94004 9.999L2.65604 14.282L1.71604 13.342L1.71704 13.344ZM13 7C13 6.80109 13.0791 6.61032 13.2197 6.46967C13.3604 6.32902 13.5511 6.25 13.75 6.25H15.25C15.449 6.25 15.6397 6.32902 15.7804 6.46967C15.921 6.61032 16 6.80109 16 7C16 7.19891 15.921 7.38968 15.7804 7.53033C15.6397 7.67098 15.449 7.75 15.25 7.75H13.75C13.5511 7.75 13.3604 7.67098 13.2197 7.53033C13.0791 7.38968 13 7.19891 13 7ZM13.78 11.78C13.9205 11.6394 13.9994 11.4488 13.9994 11.25C13.9994 11.0512 13.9205 10.8606 13.78 10.72L12.28 9.22C12.1379 9.08752 11.9498 9.0154 11.7555 9.01882C11.5612 9.02225 11.3758 9.10097 11.2384 9.23838C11.101 9.37579 11.0223 9.56118 11.0189 9.75548C11.0154 9.94978 11.0876 10.1378 11.22 10.28L12.72 11.78C12.8607 11.9205 13.0513 11.9993 13.25 11.9993C13.4488 11.9993 13.6394 11.9205 13.78 11.78ZM4.22004 3.28C4.08756 3.13783 4.01544 2.94978 4.01887 2.75548C4.02229 2.56118 4.10101 2.37579 4.23842 2.23838C4.37583 2.10097 4.56122 2.02225 4.75552 2.01883C4.94982 2.0154 5.13787 2.08752 5.28004 2.22L6.78004 3.72C6.91252 3.86217 6.98464 4.05022 6.98122 4.24452C6.97779 4.43882 6.89908 4.62421 6.76166 4.76162C6.62425 4.89903 6.43886 4.97775 6.24456 4.98117C6.05026 4.9846 5.86222 4.91248 5.72004 4.78L4.22004 3.28Z" fill="#3E3E3E"/>
</g>
<defs>
<clipPath id="clip0_324_5175">
<rect width="16" height="16" fill="white"/>
</clipPath>
</defs>
</svg>
