<svg width="32" height="32" viewBox="0 0 32 32" fill="none" xmlns="http://www.w3.org/2000/svg">
<path d="M24.9997 5.33337C25.5687 5.33337 26.1322 5.44546 26.658 5.66323C27.1837 5.881 27.6614 6.20019 28.0638 6.60258C28.4662 7.00497 28.7854 7.48267 29.0032 8.00841C29.2209 8.53416 29.333 9.09765 29.333 9.66671V25C29.333 25.5691 29.2209 26.1326 29.0032 26.6583C28.7854 27.1841 28.4662 27.6618 28.0638 28.0642C27.6614 28.4666 27.1837 28.7857 26.658 29.0035C26.1322 29.2213 25.5687 29.3334 24.9997 29.3334H9.66634C9.09728 29.3334 8.53379 29.2213 8.00805 29.0035C7.4823 28.7857 7.0046 28.4666 6.60221 28.0642C6.19982 27.6618 5.88063 27.1841 5.66286 26.6583C5.44509 26.1326 5.33301 25.5691 5.33301 25V16.6694C5.96501 16.9334 6.63567 17.1227 7.33301 17.232V25C7.3339 25.2783 7.37967 25.5423 7.47034 25.792L15.2343 18.1907C15.7666 17.6697 16.4736 17.3653 17.2178 17.3367C17.9621 17.3081 18.6904 17.5574 19.261 18.036L19.4317 18.1907L27.1943 25.7934C27.285 25.5445 27.3312 25.28 27.333 25V9.66671C27.333 9.04787 27.0872 8.45438 26.6496 8.01679C26.212 7.57921 25.6185 7.33337 24.9997 7.33337H17.2317C17.125 6.64656 16.9361 5.97507 16.669 5.33337H24.9997ZM16.745 19.5254L16.633 19.6187L8.89034 27.2014C9.1339 27.2876 9.39256 27.3316 9.66634 27.3334H24.9997C25.2703 27.3334 25.5317 27.2867 25.773 27.2014L18.033 19.62C17.8642 19.4545 17.6421 19.3542 17.4063 19.3369C17.1705 19.3196 16.9362 19.3863 16.745 19.5254ZM21.669 10C22.4654 10 23.2291 10.3164 23.7922 10.8795C24.3553 11.4426 24.6717 12.2064 24.6717 13.0027C24.6717 13.7991 24.3553 14.5628 23.7922 15.1259C23.2291 15.689 22.4654 16.0054 21.669 16.0054C20.8727 16.0054 20.1089 15.689 19.5458 15.1259C18.9827 14.5628 18.6663 13.7991 18.6663 13.0027C18.6663 12.2064 18.9827 11.4426 19.5458 10.8795C20.1089 10.3164 20.8727 10 21.669 10ZM8.66634 1.33337C9.62937 1.33337 10.583 1.52306 11.4727 1.89159C12.3624 2.26013 13.1708 2.80029 13.8518 3.48126C14.5328 4.16222 15.0729 4.97064 15.4415 5.86036C15.81 6.75008 15.9997 7.70368 15.9997 8.66671C15.9997 9.62973 15.81 10.5833 15.4415 11.4731C15.0729 12.3628 14.5328 13.1712 13.8518 13.8522C13.1708 14.5331 12.3624 15.0733 11.4727 15.4418C10.583 15.8104 9.62937 16 8.66634 16C6.72142 16 4.85616 15.2274 3.48089 13.8522C2.10562 12.4769 1.33301 10.6116 1.33301 8.66671C1.33301 6.72179 2.10562 4.85652 3.48089 3.48126C4.85616 2.10599 6.72142 1.33337 8.66634 1.33337ZM21.669 12C21.5373 12 21.407 12.026 21.2853 12.0764C21.1637 12.1268 21.0531 12.2006 20.96 12.2937C20.8669 12.3868 20.7931 12.4974 20.7427 12.619C20.6923 12.7407 20.6663 12.871 20.6663 13.0027C20.6663 13.1344 20.6923 13.2648 20.7427 13.3864C20.7931 13.5081 20.8669 13.6186 20.96 13.7117C21.0531 13.8048 21.1637 13.8787 21.2853 13.9291C21.407 13.9794 21.5373 14.0054 21.669 14.0054C21.9349 14.0054 22.19 13.8997 22.378 13.7117C22.566 13.5237 22.6717 13.2686 22.6717 13.0027C22.6717 12.7368 22.566 12.4818 22.378 12.2937C22.19 12.1057 21.9349 12 21.669 12ZM8.66634 4.00004L8.54634 4.00937C8.41314 4.03371 8.2905 4.09803 8.19475 4.19378C8.099 4.28953 8.03468 4.41217 8.01034 4.54537L7.99967 4.66671V8.00004H4.66367L4.54367 8.01071C4.41047 8.03504 4.28783 8.09937 4.19208 8.19512C4.09633 8.29086 4.03201 8.4135 4.00767 8.54671L3.99701 8.66671L4.00767 8.78671C4.03201 8.91991 4.09633 9.04255 4.19208 9.1383C4.28783 9.23405 4.41047 9.29837 4.54367 9.32271L4.66367 9.33337H7.99967V12.6707L8.01034 12.7907C8.03468 12.9239 8.099 13.0466 8.19475 13.1423C8.2905 13.238 8.41314 13.3024 8.54634 13.3267L8.66634 13.3387L8.78634 13.3267C8.91955 13.3024 9.04218 13.238 9.13793 13.1423C9.23368 13.0466 9.29801 12.9239 9.32234 12.7907L9.33301 12.6707V9.33337H12.673L12.793 9.32271C12.9262 9.29837 13.0489 9.23405 13.1446 9.1383C13.2403 9.04255 13.3047 8.91991 13.329 8.78671L13.3397 8.66671L13.329 8.54671C13.3046 8.41332 13.2401 8.29055 13.1441 8.19478C13.0481 8.09901 12.9251 8.0348 12.7917 8.01071L12.6717 8.00004H9.33301V4.66671L9.32234 4.54671C9.29825 4.41326 9.23404 4.29033 9.13827 4.19432C9.0425 4.09831 8.91973 4.0338 8.78634 4.00937L8.66634 4.00004Z" fill="#8C8C8C"/>
</svg>
