<svg width="16" height="16" viewBox="0 0 16 16" fill="none" xmlns="http://www.w3.org/2000/svg">
<path d="M10.037 1.32935L14.6437 1.35601L14.6703 5.96268L13.337 5.97001L13.3237 3.61868L9.97234 6.97068L9.02901 6.02735L12.3803 2.67601L10.0297 2.66268L10.037 1.32935ZM1.33301 1.33335H7.99967V2.66668H2.66634V6.66668H1.33301V1.33335ZM1.33301 8.00001H3.99967V9.33335H2.66634V10.6667H1.33301V8.00001ZM5.33301 8.00001H7.99967V10.6667H6.66634V9.33335H5.33301V8.00001ZM14.6663 8.00001V14.6667H9.33301V13.3333H13.333V8.00001H14.6663ZM2.66634 12V13.3333H3.99967V14.6667H1.33301V12H2.66634ZM7.99967 12V14.6667H5.33301V13.3333H6.66634V12H7.99967Z" fill="#3E3E3E"/>
</svg>
